<svg width="15" height="12" viewBox="0 0 15 12" fill="none" xmlns="http://www.w3.org/2000/svg">
<path d="M4.375 8.00171C4.72135 8.00171 5 8.28335 5 8.63342C5 8.9835 4.72135 9.26514 4.375 9.26514H3.125C2.77865 9.26514 2.5 8.9835 2.5 8.63342C2.5 8.28335 2.77865 8.00171 3.125 8.00171H4.375ZM9.375 8.00171C9.72135 8.00171 10 8.28335 10 8.63342C10 8.9835 9.72135 9.26514 9.375 9.26514H6.45833C6.11198 9.26514 5.83333 8.9835 5.83333 8.63342C5.83333 8.28335 6.11198 8.00171 6.45833 8.00171H9.375ZM13.3333 0C14.2526 0 15 0.754108 15 1.68457V10.1074C15 11.0366 14.2526 11.792 13.3333 11.792H1.66667C0.746094 11.792 0 11.0366 0 10.1074V1.68457C0 0.754108 0.746094 0 1.66667 0H13.3333ZM13.3333 1.26343H1.66667C1.43646 1.26343 1.25 1.45189 1.25 1.68457V2.52686H13.75V1.68457C13.75 1.45189 13.5625 1.26343 13.3333 1.26343ZM13.75 5.05371H1.25V10.1074C1.25 10.3391 1.43646 10.5286 1.66667 10.5286H13.3333C13.5625 10.5286 13.75 10.3391 13.75 10.1074V5.05371Z" fill="black"/>
</svg>
