<svg width="17" height="20" viewBox="0 0 17 20" fill="none" xmlns="http://www.w3.org/2000/svg">
<path d="M5.46429 5.84375V7.625H11.5357V5.84375C11.5357 4.20352 10.1772 2.875 8.5 2.875C6.82277 2.875 5.46429 4.20352 5.46429 5.84375ZM3.03571 7.625V5.84375C3.03571 2.89355 5.48326 0.5 8.5 0.5C11.5167 0.5 13.9643 2.89355 13.9643 5.84375V7.625H14.5714C15.9109 7.625 17 8.69004 17 10V17.125C17 18.435 15.9109 19.5 14.5714 19.5H2.42857C1.08906 19.5 0 18.435 0 17.125V10C0 8.69004 1.08906 7.625 2.42857 7.625H3.03571Z" fill="black" fill-opacity="0.5"/>
</svg>
