<svg width="15" height="12" viewBox="0 0 15 12" fill="none" xmlns="http://www.w3.org/2000/svg">
<path d="M0 1.68457H15C15 0.755424 14.2526 0 13.3333 0H1.66667C0.747396 0 0 0.755424 0 1.68457ZM0 2.52686V10.1074C0 11.0366 0.747396 11.792 1.66667 11.792H13.3333C14.2526 11.792 15 11.0366 15 10.1074V2.52686H0ZM1.66667 9.82578C1.66667 9.0493 2.28906 8.42285 3.05469 8.42285H6.11198C6.88021 8.42285 7.5 9.05193 7.5 9.82578C7.5 9.98108 7.375 10.1074 7.22135 10.1074H1.94531C1.79167 10.1074 1.66667 9.98108 1.66667 9.82578ZM4.58333 7.58057C3.66406 7.58057 2.91667 6.82514 2.91667 5.896C2.91667 4.96685 3.66406 4.21143 4.58333 4.21143C5.5026 4.21143 6.25 4.96685 6.25 5.896C6.25 6.82514 5.5026 7.58057 4.58333 7.58057ZM9.16667 4.63257C9.16667 4.40094 9.35417 4.21143 9.58333 4.21143H12.9167C13.1458 4.21143 13.3333 4.40094 13.3333 4.63257C13.3333 4.8642 13.1458 5.05371 12.9167 5.05371H9.58333C9.35417 5.05371 9.16667 4.8642 9.16667 4.63257ZM9.16667 6.31714C9.16667 6.08551 9.35417 5.896 9.58333 5.896H12.9167C13.1458 5.896 13.3333 6.08551 13.3333 6.31714C13.3333 6.54877 13.1458 6.73828 12.9167 6.73828H9.58333C9.35417 6.73828 9.16667 6.54877 9.16667 6.31714ZM9.16667 8.00171C9.16667 7.77008 9.35417 7.58057 9.58333 7.58057H12.9167C13.1458 7.58057 13.3333 7.77008 13.3333 8.00171C13.3333 8.23334 13.1458 8.42285 12.9167 8.42285H9.58333C9.35417 8.42285 9.16667 8.23334 9.16667 8.00171Z" fill="black"/>
</svg>
