<svg width="15" height="12" viewBox="0 0 15 12" fill="none" xmlns="http://www.w3.org/2000/svg">
<path d="M10.3125 1.68457H12.1875C12.7061 1.68457 13.125 2.06097 13.125 2.52686V9.26514C13.125 9.73103 12.7061 10.1074 12.1875 10.1074H10.3125C9.79395 10.1074 9.375 10.4838 9.375 10.9497C9.375 11.4156 9.79395 11.792 10.3125 11.792H12.1875C13.7402 11.792 15 10.6602 15 9.26514V2.52686C15 1.13182 13.7402 0 12.1875 0H10.3125C9.79395 0 9.375 0.376396 9.375 0.842285C9.375 1.30817 9.79395 1.68457 10.3125 1.68457ZM10.0928 6.35399C10.2334 6.23554 10.3125 6.06972 10.3125 5.896C10.3125 5.72227 10.2334 5.55645 10.0928 5.438L5.87402 1.85829C5.66895 1.68457 5.37012 1.63719 5.1123 1.73721C4.85449 1.83723 4.6875 2.06623 4.6875 2.31628V4.21143H0.9375C0.418945 4.21143 0 4.58782 0 5.05371V6.73828C0 7.20417 0.418945 7.58057 0.9375 7.58057H4.6875V9.47571C4.6875 9.72839 4.85449 9.95476 5.1123 10.0548C5.37012 10.1548 5.66895 10.1074 5.87402 9.9337L10.0928 6.35399Z" fill="black"/>
</svg>
