<svg width="15" height="12" viewBox="0 0 15 12" fill="none" xmlns="http://www.w3.org/2000/svg">
<path d="M2.14286 1.26343C1.84821 1.26343 1.60714 1.45294 1.60714 1.68457V10.1074C1.60714 10.3391 1.84821 10.5286 2.14286 10.5286H9.64286V8.42285C9.64286 7.95696 10.1217 7.58057 10.7143 7.58057H13.3929V1.68457C13.3929 1.45294 13.1518 1.26343 12.8571 1.26343H2.14286ZM9.64286 11.792H2.14286C0.960938 11.792 0 11.0366 0 10.1074V1.68457C0 0.755424 0.960938 0 2.14286 0H12.8571C14.0391 0 15 0.755424 15 1.68457V7.58057V7.72533C15 8.1728 14.7757 8.60184 14.3739 8.91769L11.3437 11.2998C10.942 11.6156 10.3962 11.792 9.82701 11.792H9.64286Z" fill="black"/>
</svg>
