<svg width="20" height="20" viewBox="0 0 20 20" fill="none" xmlns="http://www.w3.org/2000/svg">
<path d="M13.75 3.125H16.25C16.9414 3.125 17.5 3.73945 17.5 4.5V15.5C17.5 16.2605 16.9414 16.875 16.25 16.875H13.75C13.0586 16.875 12.5 17.4895 12.5 18.25C12.5 19.0105 13.0586 19.625 13.75 19.625H16.25C18.3203 19.625 20 17.7773 20 15.5V4.5C20 2.22266 18.3203 0.375 16.25 0.375H13.75C13.0586 0.375 12.5 0.989453 12.5 1.75C12.5 2.51055 13.0586 3.125 13.75 3.125ZM13.457 10.7477C13.6445 10.5543 13.75 10.2836 13.75 10C13.75 9.71641 13.6445 9.4457 13.457 9.25234L7.83203 3.40859C7.55859 3.125 7.16016 3.04766 6.81641 3.21094C6.47266 3.37422 6.25 3.74805 6.25 4.15625V7.25H1.25C0.558594 7.25 0 7.86445 0 8.625V11.375C0 12.1355 0.558594 12.75 1.25 12.75H6.25V15.8438C6.25 16.2563 6.47266 16.6258 6.81641 16.7891C7.16016 16.9523 7.55859 16.875 7.83203 16.5914L13.457 10.7477Z" fill="white"/>
</svg>
